<?xml version="1.0" encoding="UTF-8" standalone="no"?>
<svg
   xmlns:dc="http://purl.org/dc/elements/1.1/"
   xmlns:cc="http://creativecommons.org/ns#"
   xmlns:rdf="http://www.w3.org/1999/02/22-rdf-syntax-ns#"
   xmlns:svg="http://www.w3.org/2000/svg"
   xmlns="http://www.w3.org/2000/svg"
   xmlns:sodipodi="http://sodipodi.sourceforge.net/DTD/sodipodi-0.dtd"
   xmlns:inkscape="http://www.inkscape.org/namespaces/inkscape"
   width="340.56"
   height="100.03999"
   viewBox="79.720001 -4.0199951 340.56 100.03999"
   preserveAspectRatio="xMidYMid"
   version="1.1"
   id="svg27"
   sodipodi:docname="h1logo.svg"
   inkscape:version="0.92.2 5c3e80d, 2017-08-06">
<title id="title">ally list logo</title>
<desc id="description">The title "ally list" next to an image of a clipboard with a carrot on it.</desc>
  <metadata
     id="metadata31">
    <rdf:RDF>
      <cc:Work
         rdf:about="">
        <dc:format>image/svg+xml</dc:format>
        <dc:type
           rdf:resource="http://purl.org/dc/dcmitype/StillImage" />
        <dc:title />
      </cc:Work>
    </rdf:RDF>
  </metadata>
  <sodipodi:namedview
     pagecolor="#ffffff"
     bordercolor="#666666"
     borderopacity="1"
     objecttolerance="10"
     gridtolerance="10"
     guidetolerance="10"
     inkscape:pageopacity="0"
     inkscape:pageshadow="2"
     inkscape:window-width="1404"
     inkscape:window-height="856"
     id="namedview29"
     showgrid="false"
     inkscape:zoom="0.95137421"
     inkscape:cx="-17.868888"
     inkscape:cy="79.019997"
     inkscape:window-x="0"
     inkscape:window-y="0"
     inkscape:window-maximized="0"
     inkscape:current-layer="svg27" />
  <defs
     id="defs17">
    <filter
       id="editing-extrusion"
       x="-1"
       y="-1"
       width="3"
       height="3">
      <feFlood
         result="color1"
         flood-color="rgba(39.475224796287954%,87.88572184244792%,24.75724202090089%,0.717)"
         id="feFlood2" />
      <feConvolveMatrix
         order="5,5"
         divisor="1"
         kernelMatrix="1 0 0 0 0 0 1 0 0 0 0 0 1 0 0 0 0 0 1 0 0 0 0 0 1"
         in="SourceAlpha"
         result="extrude"
         id="feConvolveMatrix4" />
      <feComposite
         in="color1"
         in2="extrude"
         result="comp-extrude"
         operator="in"
         id="feComposite6" />
      <feOffset
         dx="2.5"
         dy="2.5"
         in="comp-extrude"
         result="offset-extrude"
         id="feOffset8" />
      <feMerge
         id="feMerge14">
        <feMergeNode
           in="offset-extrude"
           id="feMergeNode10" />
        <feMergeNode
           in="SourceGraphic"
           id="feMergeNode12" />
      </feMerge>
    </filter>
  </defs>
  <g
     id="g23"
     transform="translate(-42,-66.000006)"
     style="filter:url(#editing-extrusion)">
    <g
       transform="translate(133.32999,145.415)"
       id="g21">
      <path
         d="m 16.64,-6.91 v 0 0 q 1.09,0 2.4,-0.23 v 0 0 q 1.31,-0.22 1.95,-0.6 v 0 -5.12 l -4.61,0.38 v 0 q -1.79,0.13 -2.94,0.77 v 0 0 q -1.15,0.64 -1.15,1.92 v 0 0 q 0,1.28 0.99,2.08 v 0 0 q 0.99,0.8 3.36,0.8 z m -0.51,-25.15 v 0 0 q 3.45,0 6.3,0.7 v 0 0 q 2.85,0.7 4.87,2.14 v 0 0 q 2.01,1.44 3.1,3.65 v 0 0 q 1.09,2.21 1.09,5.22 v 0 14.33 0 q 0,1.67 -0.93,2.72 v 0 0 q -0.93,1.06 -2.21,1.83 v 0 0 Q 24.19,1.02 16.64,1.02 v 0 0 q -3.39,0 -6.11,-0.64 v 0 0 Q 7.81,-0.26 5.86,-1.54 v 0 0 Q 3.9,-2.82 2.85,-4.8 v 0 0 Q 1.79,-6.78 1.79,-9.41 v 0 0 q 0,-4.41 2.63,-6.78 v 0 0 q 2.62,-2.37 8.12,-2.95 v 0 l 8.39,-0.89 v -0.45 0 q 0,-1.86 -1.63,-2.66 v 0 0 q -1.64,-0.8 -4.71,-0.8 v 0 0 q -2.43,0 -4.73,0.52 v 0 0 q -2.31,0.51 -4.16,1.28 v 0 0 Q 4.86,-22.72 4.29,-23.9 v 0 0 q -0.58,-1.19 -0.58,-2.47 v 0 0 q 0,-1.66 0.8,-2.65 v 0 0 q 0.8,-1 2.47,-1.7 v 0 0 q 1.85,-0.7 4.38,-1.02 v 0 0 q 2.53,-0.32 4.77,-0.32 z m 28.61,27.45 v -23.93 l -6.4,1.98 v 0 q -0.96,-0.64 -1.92,-1.79 v 0 0 q -0.96,-1.15 -0.96,-3.2 v 0 0 q 0,-3.84 4.67,-5.38 v 0 l 7.17,-2.43 h 2.36 v 0 q 2.76,0 4.36,1.6 v 0 0 q 1.6,1.6 1.6,4.35 v 0 33.35 0 q -0.71,0.12 -2.08,0.35 v 0 0 q -1.38,0.22 -2.79,0.22 v 0 0 q -1.41,0 -2.53,-0.19 v 0 0 Q 47.1,0.13 46.34,-0.45 v 0 0 q -0.77,-0.57 -1.19,-1.57 v 0 0 q -0.41,-0.99 -0.41,-2.59 z m 25.15,0 v -23.93 l -6.4,1.98 v 0 q -0.96,-0.64 -1.92,-1.79 v 0 0 q -0.96,-1.15 -0.96,-3.2 v 0 0 q 0,-3.84 4.67,-5.38 v 0 l 7.17,-2.43 h 2.37 v 0 q 2.75,0 4.35,1.6 v 0 0 q 1.6,1.6 1.6,4.35 v 0 33.35 0 q -0.71,0.12 -2.08,0.35 v 0 0 Q 77.31,0.51 75.9,0.51 v 0 0 q -1.4,0 -2.52,-0.19 v 0 0 Q 72.26,0.13 71.49,-0.45 v 0 0 Q 70.72,-1.02 70.3,-2.02 v 0 0 q -0.41,-0.99 -0.41,-2.59 z m 23.42,-3.33 v 0 0 q -0.7,-1.6 -1.5,-3.58 v 0 0 q -0.8,-1.98 -1.67,-4.54 v 0 0 q -0.86,-2.56 -1.79,-5.86 v 0 0 q -0.93,-3.3 -1.95,-7.58 v 0 0 q 0.9,-0.9 2.4,-1.57 v 0 0 q 1.5,-0.67 3.3,-0.67 v 0 0 q 2.24,0 3.71,0.92 v 0 0 q 1.47,0.93 2.17,3.49 v 0 l 5.06,17.6 h 0.26 v 0 q 0.76,-2.17 1.5,-4.73 v 0 0 q 0.74,-2.56 1.44,-5.28 v 0 0 q 0.7,-2.72 1.31,-5.44 v 0 0 q 0.61,-2.72 1.06,-5.35 v 0 0 q 2.3,-1.21 5.05,-1.21 v 0 0 q 2.24,0 3.72,0.96 v 0 0 q 1.47,0.96 1.47,3.32 v 0 0 q 0,1.73 -0.45,4 v 0 0 q -0.45,2.28 -1.18,4.84 v 0 0 q -0.74,2.56 -1.73,5.28 v 0 0 q -0.99,2.72 -2.08,5.34 v 0 0 q -1.09,2.62 -2.24,4.96 v 0 0 q -1.15,2.34 -2.24,4.19 v 0 0 q -1.79,3.14 -3.33,5.12 v 0 0 q -1.54,1.99 -2.94,3.11 v 0 0 q -1.41,1.12 -2.82,1.53 v 0 0 q -1.41,0.42 -2.94,0.42 v 0 0 q -2.69,0 -4.36,-1.6 v 0 0 Q 90.88,8.13 90.56,5.57 v 0 0 q 2.05,-1.6 4.1,-3.55 v 0 0 q 2.04,-1.96 3.71,-4 v 0 0 Q 97.28,-2.3 96.03,-3.49 v 0 0 q -1.25,-1.18 -2.72,-4.45 z m 49.79,3.33 v -23.93 l -6.4,1.98 v 0 q -0.96,-0.64 -1.92,-1.79 v 0 0 q -0.96,-1.15 -0.96,-3.2 v 0 0 q 0,-3.84 4.68,-5.38 v 0 l 7.16,-2.43 h 2.37 v 0 q 2.75,0 4.35,1.6 v 0 0 q 1.6,1.6 1.6,4.35 v 0 33.35 0 q -0.7,0.12 -2.08,0.35 v 0 0 q -1.37,0.22 -2.78,0.22 v 0 0 q -1.41,0 -2.53,-0.19 v 0 0 q -1.12,-0.19 -1.89,-0.77 v 0 0 q -0.76,-0.57 -1.18,-1.57 v 0 0 q -0.42,-0.99 -0.42,-2.59 z m 18.31,-35.13 v 0 0 q 0,-2.44 1.63,-4.1 v 0 0 q 1.63,-1.66 4.32,-1.66 v 0 0 q 2.69,0 4.32,1.66 v 0 0 q 1.63,1.66 1.63,4.1 v 0 0 q 0,2.43 -1.63,4.09 v 0 0 q -1.63,1.67 -4.32,1.67 v 0 0 q -2.69,0 -4.32,-1.67 v 0 0 q -1.63,-1.66 -1.63,-4.09 z m 11.39,13.63 v 26.05 0 q -0.7,0.12 -2.08,0.35 v 0 0 q -1.38,0.22 -2.78,0.22 v 0 0 q -1.41,0 -2.53,-0.19 v 0 0 q -1.12,-0.19 -1.89,-0.77 v 0 0 q -0.77,-0.57 -1.18,-1.57 v 0 0 q -0.42,-0.99 -0.42,-2.59 v 0 -26.05 0 q 0.7,-0.12 2.08,-0.35 v 0 0 q 1.38,-0.22 2.78,-0.22 v 0 0 q 1.41,0 2.53,0.19 v 0 0 q 1.12,0.19 1.89,0.77 v 0 0 q 0.77,0.57 1.18,1.57 v 0 0 q 0.42,0.99 0.42,2.59 z m 33.15,16.83 v 0 0 q 0,4.86 -3.65,7.62 v 0 0 q -3.64,2.75 -10.75,2.75 v 0 0 q -2.69,0 -4.99,-0.39 v 0 0 q -2.3,-0.38 -3.94,-1.18 v 0 0 q -1.63,-0.8 -2.56,-2.02 v 0 0 q -0.92,-1.21 -0.92,-2.88 v 0 0 q 0,-1.53 0.64,-2.59 v 0 0 q 0.64,-1.05 1.53,-1.76 v 0 0 q 1.86,1.03 4.26,1.83 v 0 0 q 2.4,0.8 5.53,0.8 v 0 0 q 1.99,0 3.04,-0.58 v 0 0 q 1.06,-0.58 1.06,-1.54 v 0 0 q 0,-0.89 -0.77,-1.4 v 0 0 q -0.77,-0.52 -2.56,-0.84 v 0 l -1.92,-0.38 v 0 q -5.57,-1.09 -8.29,-3.42 v 0 0 q -2.72,-2.34 -2.72,-6.69 v 0 0 q 0,-2.37 1.03,-4.29 v 0 0 q 1.02,-1.92 2.88,-3.2 v 0 0 q 1.85,-1.28 4.45,-1.98 v 0 0 q 2.59,-0.71 5.72,-0.71 v 0 0 q 2.37,0 4.45,0.35 v 0 0 q 2.08,0.36 3.62,1.06 v 0 0 q 1.53,0.7 2.43,1.82 v 0 0 q 0.9,1.12 0.9,2.66 v 0 0 q 0,1.47 -0.55,2.53 v 0 0 q -0.54,1.05 -1.37,1.76 v 0 0 q -0.52,-0.32 -1.54,-0.67 v 0 0 q -1.02,-0.36 -2.24,-0.64 v 0 0 q -1.22,-0.29 -2.46,-0.48 v 0 0 q -1.25,-0.2 -2.28,-0.2 v 0 0 q -2.11,0 -3.26,0.48 v 0 0 q -1.15,0.48 -1.15,1.51 v 0 0 q 0,0.7 0.64,1.15 v 0 0 q 0.64,0.45 2.43,0.83 v 0 l 1.98,0.45 v 0 q 6.15,1.41 8.74,3.87 v 0 0 q 2.59,2.47 2.59,6.37 z m 16.13,-11.07 v 9.66 0 q 0,1.67 1.06,2.37 v 0 0 q 1.05,0.7 2.97,0.7 v 0 0 q 0.96,0 1.99,-0.16 v 0 0 q 1.02,-0.16 1.79,-0.41 v 0 0 q 0.57,0.7 0.99,1.57 v 0 0 q 0.42,0.86 0.42,2.08 v 0 0 q 0,2.43 -1.83,3.96 v 0 0 q -1.82,1.54 -6.43,1.54 v 0 0 q -5.63,0 -8.67,-2.56 v 0 0 q -3.04,-2.56 -3.04,-8.32 v 0 -27.39 0 q 0.7,-0.19 2.01,-0.42 v 0 0 q 1.32,-0.22 2.79,-0.22 v 0 0 q 2.81,0 4.38,0.99 v 0 0 q 1.57,0.99 1.57,4.19 v 0 4.1 h 8.38 v 0 q 0.39,0.7 0.74,1.76 v 0 0 q 0.35,1.05 0.35,2.33 v 0 0 q 0,2.24 -0.99,3.24 v 0 0 q -0.99,0.99 -2.66,0.99 v 0 z"
         id="path19"
         inkscape:connector-curvature="0"
         style="fill:#1a2f00" />
    </g>
  </g>
  <style
     id="style25">text {
  font-size: 64px;
  font-family: Arial Black;
  dominant-baseline: central;
  text-anchor: middle;
}</style>
  <path
     inkscape:connector-curvature="0"
     d="m 403.89666,9.604433 h -14.58333 c 0,-6.434895 -5.23178,-11.666667 -11.66667,-11.666667 -6.43489,0 -11.66667,5.231772 -11.66667,11.666667 h -14.58333 c -4.83073,0 -8.75,3.919272 -8.75,8.749999 v 64.166672 c 0,4.83073 3.91927,8.75 8.75,8.75 h 52.5 c 4.83073,0 8.75,-3.91927 8.75,-8.75 V 18.354432 c 0,-4.830727 -3.91927,-8.749999 -8.75,-8.749999 z m -26.25,-4.375 c 2.42448,0 4.375,1.950526 4.375,4.375 0,2.424482 -1.95052,4.375 -4.375,4.375 -2.42448,0 -4.375,-1.950518 -4.375,-4.375 0,-2.424474 1.95052,-4.375 4.375,-4.375 z m 26.25,76.197921 c 0,0.60157 -0.49218,1.09375 -1.09375,1.09375 h -50.3125 c -0.60157,0 -1.09375,-0.49218 -1.09375,-1.09375 V 19.448186 c 0,-0.60157 0.49218,-1.093754 1.09375,-1.093754 h 7.65625 v 6.5625 c 0,1.203122 0.98438,2.1875 2.1875,2.1875 h 30.625 c 1.20312,0 2.1875,-0.984378 2.1875,-2.1875 v -6.5625 h 7.65625 c 0.60157,0 1.09375,0.492184 1.09375,1.093754 z"
     id="path2"
     style="fill:#1a2f00;fill-opacity:1;stroke-width:0.18229167" />
  <path
     d="m 381.83976,43.249459 c -4.69126,-2.287721 -10.19258,-0.934668 -13.37053,2.919738 l 4.9138,4.913701 c 0.56083,0.560803 0.56083,1.459864 0,2.011772 -0.27594,0.275949 -0.64092,0.418367 -1.0059,0.418367 -0.36498,0 -0.72995,-0.142418 -1.0059,-0.418367 l -4.46871,-4.468623 -11.40323,23.384597 c -0.25816,0.53409 -0.27596,1.18391 0,1.75362 0.48069,0.98808 1.68244,1.39756 2.67054,0.91686 l 11.89283,-5.80386 -4.37969,-4.3796 c -0.56082,-0.55191 -0.56082,-1.45988 0,-2.01178 0.56081,-0.551894 1.45989,-0.551894 2.01181,0 l 5.07403,5.07394 9.07986,-4.43302 c 2.13643,-1.04149 3.96131,-2.78621 5.08293,-5.082826 2.67945,-5.492312 0.40059,-12.115124 -5.09184,-14.794519 z m 8.19858,-3.106674 c 1.73585,-3.622958 0.83677,-7.904644 -2.69725,-10.833285 -4.47762,3.711978 -4.67345,9.569262 -0.70325,13.521583 l 0.71215,0.712134 c 3.95241,3.97012 9.81871,3.774288 13.52187,-0.70323 -2.92871,-3.533954 -7.21048,-4.433016 -10.83352,-2.697202 z"
     id="path2-7"
     inkscape:connector-curvature="0"
     style="fill:#1a2500;fill-opacity:1;stroke-width:0.08901725" />
</svg>
